<svg xmlns="http://www.w3.org/2000/svg" width="122" height="40" fill="none"><path fill="#E7583A" fill-rule="evenodd" d="M41.126 32.585c.322-.23.6-.406.852-.613 1.007-.833 1.996-1.679 2.868-2.664.74-.836 1.416-1.71 1.813-2.742.467-1.213.678-2.474.168-3.748-.35-.876-1.08-1.368-2.014-1.406-.852-.034-1.538.294-2.171.83-1.111.94-1.65 2.19-2.042 3.543-.448 1.54-.318 3.105-.226 4.66.042.72.278 1.442.752 2.14M16.963 20.081l.243.094c.184-.201.381-.392.548-.606 1.074-1.375 2.019-2.832 2.923-4.326 1.331-2.199 2.334-4.508 2.7-7.054.124-.854.126-1.742.047-2.602-.042-.452-.325-.915-.6-1.302-.152-.212-.504-.353-.784-.39-.907-.123-1.522.383-1.96 1.094-.28.455-.486.96-.68 1.46-.593 1.54-.888 3.157-1.162 4.77-.39 2.297-.72 4.603-1.061 6.907-.097.648-.144 1.303-.214 1.955m44.69 6.686.248.095c.157-.187.34-.357.466-.563.561-.92 1.135-1.833 1.65-2.778.795-1.464 1.618-2.92 2.298-4.438a32.8 32.8 0 0 0 2.193-6.798c.45-2.187.818-4.386.685-6.634-.018-.305-.03-.618-.108-.912-.231-.873-1.151-1.204-1.856-.633a5.8 5.8 0 0 0-1.145 1.236c-1.033 1.525-1.655 3.244-2.165 4.993-.637 2.191-1.17 4.411-1.452 6.68q-.29 2.324-.534 4.654a84 84 0 0 0-.28 3.364c-.037.576-.002 1.156 0 1.734m18.674.234.185.052c.385-.568.791-1.124 1.151-1.708a58 58 0 0 0 3.02-5.531 30 30 0 0 0 2.283-6.76 71 71 0 0 0 .874-5.3c.132-1.012.12-2.048-.145-3.056-.271-1.032-1.035-1.266-1.844-.557a6.8 6.8 0 0 0-1.605 2.045c-1.13 2.212-1.834 4.566-2.37 6.971-.51 2.275-.934 4.567-1.125 6.896-.12 1.453-.31 2.9-.413 4.353-.06.861-.011 1.73-.011 2.595m23.637 9.022c.882.112 1.774-.086 2.582-.603 1.45-.93 2.506-2.19 3.125-3.8.398-1.036.58-2.107.651-3.222.087-1.378-.034-2.706-.514-3.996-.31-.835-.801-1.568-1.549-2.06-1.713-1.125-3.494-1.058-5.259-.123-.9.476-1.627 1.211-2.193 2.024-1.586 2.283-2.154 4.843-1.752 7.594.147 1 .517 1.941 1.187 2.717.954 1.104 2.191 1.573 3.722 1.47m9.828-11.798c.081.592.174 1.22.252 1.848.273 2.198.057 4.349-.683 6.438-.386 1.089-.857 2.137-1.541 3.088-1.65 2.298-3.807 3.851-6.64 4.216-3.657.472-6.62-.808-8.738-3.87-.245-.354-.41-.762-.669-1.25-.202.166-.395.275-.522.436a13.4 13.4 0 0 1-4.366 3.605 10.06 10.06 0 0 1-4.365 1.155c-1.573.05-3.06-.182-4.483-.906-1.295-.659-2.329-1.577-3.172-2.736-.148-.203-.305-.4-.502-.657-.321.205-.606.364-.867.557-1.957 1.448-4.046 2.64-6.416 3.285-2.227.606-4.449.698-6.69.017-1.764-.536-3.033-1.675-4.098-3.105-.21-.28-.416-.564-.666-.902-.339.271-.6.509-.89.709-2.06 1.427-4.22 2.665-6.677 3.282-1.774.447-3.56.692-5.416.498-1.689-.177-3.293-.546-4.808-1.297a9 9 0 0 1-1.066-.62c-.407-.278-.782-.277-1.227-.068-1.354.636-2.76 1.156-4.23 1.432-1.258.236-2.54.453-3.816.472-1.838.027-3.595-.44-5.007-1.687-1.252-1.106-1.861-2.584-1.913-4.233-.033-1.044.057-2.101.196-3.139.224-1.675.527-3.34.809-5.007a3.96 3.96 0 0 0-.23-2.117c-.43-1.107-1.171-1.49-2.463-1.422-1.136.06-2.133.541-2.94 1.373a13.7 13.7 0 0 0-2.567 3.71c-1.314 2.77-1.957 5.71-2.375 8.716-.092.659-.112 1.33-.235 1.982-.195 1.028-.876 1.553-1.902 1.545-1.15-.009-1.896-.717-1.893-1.873 0-.663.097-1.327.17-1.988.124-1.145.267-2.288.394-3.433.013-.115-.029-.236-.063-.479-.26.173-.448.281-.617.414-1.936 1.528-3.903 3.014-6.017 4.295-.615.372-1.227.752-1.855 1.103-.548.306-1.109.507-1.762.244-1.36-.547-1.669-2.278-.52-3.187.623-.493 1.3-.923 1.981-1.336a48.6 48.6 0 0 0 6.881-5.064c.79-.695 1.539-1.435 2.312-2.149.297-.275.434-.598.487-1.006.437-3.327.87-6.654 1.358-9.973.332-2.256.686-4.512 1.154-6.742a24 24 0 0 1 1.257-4.111c.64-1.565 1.632-2.917 3.234-3.678 2.95-1.4 6.465-.16 7.549 3.19.49 1.515.53 3.07.319 4.639-.39 2.913-1.371 5.618-2.873 8.142-.25.419-.483.847-.71 1.278-.079.15-.118.32-.19.523.172.045.288.092.408.105 1.321.148 2.457.707 3.49 1.516.76.596 1.185 1.402 1.522 2.273.583 1.506.57 3.072.378 4.63-.213 1.727-.559 3.438-.79 5.163-.09.68-.06 1.383-.028 2.073.034.736.481 1.207 1.119 1.54.946.495 1.962.388 2.954.32 1.364-.095 2.69-.433 3.981-.886q.22-.075.43-.172c.734-.337.772-.417.468-1.166-1.11-2.729-1.211-5.524-.605-8.379a13.3 13.3 0 0 1 1.28-3.53c1.238-2.319 3.082-3.826 5.74-4.175 2.078-.272 3.938.285 5.427 1.787.985.993 1.525 2.233 1.712 3.625.299 2.22-.216 4.256-1.284 6.2-1.06 1.929-2.607 3.413-4.244 4.83-.44.38-.879.763-1.44 1.25.368.163.6.294.85.372a9.7 9.7 0 0 0 3.737.413c1.752-.154 3.452-.519 5.041-1.332 1.477-.755 2.788-1.734 4.053-2.787.43-.357.622-.78.532-1.353-.415-2.649-.337-5.306-.148-7.97.184-2.584.51-5.146.938-7.7.5-2.993 1.255-5.918 2.388-8.734.71-1.767 1.603-3.446 3.013-4.784 1.59-1.51 3.465-1.871 5.502-1.16 1.704.594 2.619 1.945 2.983 3.645.267 1.25.346 2.507.237 3.811-.203 2.44-.642 4.824-1.262 7.182-.544 2.061-1.298 4.046-2.184 5.99-1.356 2.977-3.068 5.745-4.84 8.48-.585.902-1.253 1.754-1.925 2.596-.286.356-.295.645-.124 1.047 1.051 2.471 3.227 3.33 5.643 3.015 2.725-.355 4.973-1.635 7.092-3.312 1.034-.819 1.418-1.586 1.147-2.91-.401-1.963-.248-3.987-.176-5.982.06-1.633.245-3.27.488-4.887.338-2.254.73-4.502 1.194-6.733.619-2.973 1.556-5.858 3.105-8.486.75-1.273 1.668-2.456 3.034-3.206 2.048-1.124 5.307-.764 6.542 1.912.47 1.017.736 2.051.765 3.182.115 4.509-.862 8.81-2.423 12.999-1.213 3.254-2.824 6.32-4.698 9.241-.912 1.423-1.928 2.78-2.922 4.15-.22.304-.303.555-.148.91.786 1.815 2.078 3.029 4.113 3.141 1.646.091 3.217-.29 4.576-1.314 2.12-1.596 3.478-3.722 4.456-6.149.69-1.71 1.212-3.483 2.084-5.127.99-1.865 2.324-3.402 4.132-4.463 2.056-1.205 4.271-1.68 6.675-1.167 1.266.27 2.355.884 3.476 1.446.769.386 1.552.679 2.409.768 2.01.209 3.706-.373 4.994-1.974.442-.55.89-1.05 1.692-1.055 1.517-.012 2.476 1.485 1.702 2.78a7.4 7.4 0 0 1-1.412 1.714c-1.69 1.496-3.694 2.293-5.955 2.44a2.4 2.4 0 0 0-.379.059c-.045.01-.083.056-.188.131" clip-rule="evenodd"/></svg>